<svg width="28" height="23" viewBox="0 0 28 23" fill="none" xmlns="http://www.w3.org/2000/svg">
<path d="M5.24431 4.34328L22.8257 19.1015M16.2327 13.7849C15.6495 14.2231 14.8793 14.4896 14.035 14.4896C12.2144 14.4896 10.7385 13.2507 10.7385 11.7224C10.7385 11.0137 11.0559 10.3672 11.5779 9.87761M22.3947 15.0501C23.0225 14.5913 23.5842 14.1297 24.0677 13.7027C25.3419 12.5773 25.3419 10.8675 24.0677 9.74211C21.9186 7.84405 18.2276 5.26567 14.035 5.26567C13.0555 5.26567 12.1034 5.40639 11.192 5.64629M7.9914 6.92909C6.38867 7.78789 5.02194 8.84157 4.0023 9.74211C2.72808 10.8675 2.72808 12.5773 4.0023 13.7027C6.15139 15.6007 9.84237 18.1791 14.035 18.1791C16.0877 18.1791 18.0202 17.561 19.7103 16.7074" stroke="#7D848D" stroke-width="1.5" stroke-linecap="round"/>
</svg>
