<svg width="28" height="23" viewBox="0 0 28 23" fill="none" xmlns="http://www.w3.org/2000/svg">
<path d="M5.24431 4.25072L22.8257 19.0089M16.2327 13.6924C15.6495 14.1306 14.8793 14.397 14.035 14.397C12.2144 14.397 10.7385 13.1581 10.7385 11.6298C10.7385 10.9211 11.0559 10.2746 11.5779 9.78505M22.3947 14.9575C23.0225 14.4987 23.5842 14.0372 24.0677 13.6101C25.3419 12.4847 25.3419 10.7749 24.0677 9.64955C21.9186 7.75149 18.2276 5.17311 14.035 5.17311C13.0555 5.17311 12.1034 5.31383 11.192 5.55372M7.9914 6.83652C6.38867 7.69532 5.02194 8.749 4.0023 9.64954C2.72808 10.7749 2.72808 12.4847 4.0023 13.6101C6.15139 15.5082 9.84237 18.0865 14.035 18.0865C16.0877 18.0865 18.0202 17.4685 19.7103 16.6148" stroke="#7D848D" stroke-width="1.5" stroke-linecap="round"/>
</svg>
