<svg width="27" height="23" viewBox="0 0 27 23" fill="none" xmlns="http://www.w3.org/2000/svg">
<g clip-path="url(#clip0_1_36)">
<path fill-rule="evenodd" clip-rule="evenodd" d="M7.84467 7.84803C7.84467 6.89396 8.29617 5.97897 9.09985 5.30434C9.90354 4.62972 10.9936 4.25071 12.1301 4.25071C13.2667 4.25071 14.3567 4.62972 15.1604 5.30434C15.9641 5.97897 16.4156 6.89396 16.4156 7.84803V10.0618H7.84467V7.84803ZM4.54816 10.1658V7.84803C4.54816 7.01223 4.74427 6.18462 5.1253 5.41245C5.50633 4.64027 6.06482 3.93866 6.76887 3.34766C7.47292 2.75667 8.30875 2.28786 9.22864 1.96802C10.1485 1.64817 11.1345 1.48355 12.1301 1.48355C13.1258 1.48355 14.1117 1.64817 15.0316 1.96802C15.9515 2.28786 16.7874 2.75667 17.4914 3.34766C18.1955 3.93866 18.7539 4.64027 19.135 5.41245C19.516 6.18462 19.7121 7.01223 19.7121 7.84803V10.1658C20.5615 10.3499 21.3139 10.7658 21.851 11.3481C22.3881 11.9303 22.6793 12.646 22.679 13.3824V20.0235C22.679 20.9042 22.2622 21.7488 21.5203 22.3716C20.7785 22.9943 19.7723 23.3441 18.7232 23.3441H5.53711C4.48797 23.3441 3.48179 22.9943 2.73993 22.3716C1.99807 21.7488 1.5813 20.9042 1.5813 20.0235V13.3824C1.58093 12.646 1.87219 11.9303 2.40926 11.3481C2.94633 10.7658 3.69874 10.3499 4.54816 10.1658ZM12.1301 14.7659C12.4332 14.7659 12.7332 14.816 13.0132 14.9134C13.2932 15.0107 13.5475 15.1534 13.7618 15.3333C13.9761 15.5131 14.1461 15.7267 14.262 15.9617C14.378 16.1967 14.4377 16.4486 14.4377 16.703C14.4377 16.9573 14.378 17.2092 14.262 17.4442C14.1461 17.6792 13.9761 17.8928 13.7618 18.0726C13.5475 18.2525 13.2932 18.3952 13.0132 18.4925C12.7332 18.5899 12.4332 18.64 12.1301 18.64C11.5181 18.64 10.9312 18.4359 10.4984 18.0726C10.0657 17.7094 9.82258 17.2167 9.82258 16.703C9.82258 16.1892 10.0657 15.6965 10.4984 15.3333C10.9312 14.97 11.5181 14.7659 12.1301 14.7659Z" fill="black"/>
</g>
<defs>
<clipPath id="clip0_1_36">
<rect width="26.3721" height="22.1373" fill="white" transform="translate(0.482422 0.561165)"/>
</clipPath>
</defs>
</svg>
