<svg width="27" height="23" viewBox="0 0 27 23" fill="none" xmlns="http://www.w3.org/2000/svg">
<g clip-path="url(#clip0_1_27)">
<path fill-rule="evenodd" clip-rule="evenodd" d="M9.18549 7.29493C9.18549 6.34086 9.63699 5.42587 10.4407 4.75124C11.2444 4.07662 12.3344 3.69761 13.471 3.69761C14.6075 3.69761 15.6976 4.07662 16.5012 4.75124C17.3049 5.42587 17.7564 6.34086 17.7564 7.29493V9.50866H9.18549V7.29493ZM5.88898 9.6127V7.29493C5.88898 6.45913 6.08509 5.63152 6.46612 4.85935C6.84715 4.08717 7.40564 3.38556 8.10969 2.79456C8.81374 2.20357 9.64957 1.73476 10.5695 1.41492C11.4893 1.09507 12.4753 0.93045 13.471 0.93045C14.4666 0.93045 15.4526 1.09507 16.3725 1.41492C17.2923 1.73476 18.1282 2.20357 18.8322 2.79456C19.5363 3.38556 20.0948 4.08717 20.4758 4.85935C20.8568 5.63152 21.0529 6.45913 21.0529 7.29493V9.6127C21.9023 9.79681 22.6548 10.2127 23.1918 10.795C23.7289 11.3772 24.0202 12.0929 24.0198 12.8293V19.4705C24.0198 20.3511 23.603 21.1957 22.8612 21.8185C22.1193 22.4412 21.1131 22.791 20.064 22.791H6.87793C5.82879 22.791 4.82261 22.4412 4.08075 21.8185C3.33889 21.1957 2.92212 20.3511 2.92212 19.4705V12.8293C2.92175 12.0929 3.21301 11.3772 3.75008 10.795C4.28715 10.2127 5.03956 9.79681 5.88898 9.6127ZM13.471 14.2128C13.774 14.2128 14.0741 14.2629 14.354 14.3603C14.634 14.4576 14.8884 14.6003 15.1026 14.7802C15.3169 14.96 15.4869 15.1736 15.6029 15.4086C15.7188 15.6436 15.7785 15.8955 15.7785 16.1499C15.7785 16.4042 15.7188 16.6561 15.6029 16.8911C15.4869 17.1261 15.3169 17.3397 15.1026 17.5195C14.8884 17.6994 14.634 17.8421 14.354 17.9394C14.0741 18.0368 13.774 18.0869 13.471 18.0869C12.859 18.0869 12.272 17.8828 11.8393 17.5195C11.4065 17.1563 11.1634 16.6636 11.1634 16.1499C11.1634 15.6361 11.4065 15.1434 11.8393 14.7802C12.272 14.4169 12.859 14.2128 13.471 14.2128Z" fill="black"/>
</g>
<defs>
<clipPath id="clip0_1_27">
<rect width="26.3721" height="22.1373" fill="white" transform="translate(0.284912 0.653732)"/>
</clipPath>
</defs>
</svg>
