<svg width="26" height="23" viewBox="0 0 26 23" fill="none" xmlns="http://www.w3.org/2000/svg">
<path fill-rule="evenodd" clip-rule="evenodd" d="M19.487 5.75523C19.487 7.22303 18.7924 8.6307 17.5559 9.66859C16.3195 10.7065 14.6425 11.2896 12.894 11.2896C11.1454 11.2896 9.46841 10.7065 8.23198 9.66859C6.99555 8.6307 6.30093 7.22303 6.30093 5.75523C6.30093 4.28743 6.99555 2.87976 8.23198 1.84187C9.46841 0.803981 11.1454 0.220901 12.894 0.220901C14.6425 0.220901 16.3195 0.803981 17.5559 1.84187C18.7924 2.87976 19.487 4.28743 19.487 5.75523ZM20.5102 15.5289C22.7373 16.8517 24.4207 18.7219 25.3284 20.8817C25.3989 21.0486 25.4206 21.2273 25.3917 21.4027C25.3629 21.5781 25.2843 21.7452 25.1626 21.8898C25.0409 22.0345 24.8797 22.1525 24.6924 22.234C24.5051 22.3155 24.2972 22.3581 24.0863 22.3582H1.70164C1.49067 22.3581 1.28281 22.3155 1.09552 22.234C0.908225 22.1525 0.746962 22.0345 0.625271 21.8898C0.50358 21.7452 0.425014 21.5781 0.396171 21.4027C0.367328 21.2273 0.38905 21.0486 0.459513 20.8817C1.13796 19.2676 2.25309 17.8076 3.71727 16.6164C5.18144 15.4252 6.95476 14.5353 8.89787 14.0165C10.841 13.4978 12.9009 13.3644 14.9158 13.6268C16.9307 13.8892 18.8457 14.5403 20.5102 15.5289Z" fill="black"/>
</svg>
