<svg width="42" height="42" viewBox="0 0 42 42" fill="none" xmlns="http://www.w3.org/2000/svg">
<path d="M39.3422 32.7892L32.6908 26.1378L27.5746 24.0241C29.2782 21.6016 30.1909 18.7115 30.1875 15.75C30.1875 7.78911 23.7109 1.3125 15.75 1.3125C7.78911 1.3125 1.3125 7.78911 1.3125 15.75C1.3125 23.7109 7.78911 30.1875 15.75 30.1875C18.7373 30.1909 21.6512 29.2625 24.0859 27.5316L26.1941 32.6339L32.8453 39.2857C33.2719 39.7123 33.7783 40.0507 34.3356 40.2815C34.893 40.5124 35.4903 40.6313 36.0936 40.6313C36.6969 40.6313 37.2942 40.5125 37.8516 40.2816C38.409 40.0508 38.9154 39.7124 39.342 39.2859C39.7686 38.8593 40.107 38.3529 40.3378 37.7956C40.5687 37.2382 40.6876 36.6409 40.6876 36.0376C40.6876 35.4343 40.5688 34.8369 40.338 34.2796C40.1071 33.7222 39.7688 33.2158 39.3422 32.7892ZM3.9375 15.75C3.9375 9.23672 9.23672 3.9375 15.75 3.9375C22.2633 3.9375 27.5625 9.23672 27.5625 15.75C27.5625 22.2633 22.2633 27.5625 15.75 27.5625C9.23672 27.5625 3.9375 22.2633 3.9375 15.75ZM37.4859 37.4295C37.1164 37.7982 36.6157 38.0052 36.0938 38.0052C35.5718 38.0052 35.0711 37.7982 34.7016 37.4295L28.4203 31.1483L26.4602 26.404L31.2047 28.364L37.4861 34.6453C37.8547 35.0149 38.0616 35.5155 38.0616 36.0375C38.0616 36.5594 37.8545 37.06 37.4859 37.4295Z" fill="#F8F8F8"/>
</svg>
