<svg width="42" height="46" viewBox="0 0 42 46" fill="none" xmlns="http://www.w3.org/2000/svg">
<ellipse cx="20.9191" cy="22.9697" rx="20.9191" ry="22.9696" fill="#1D1111"/>
<path d="M13.16 29.4555C13.16 28.2327 13.6024 27.0599 14.3899 26.1953C15.1773 25.3306 16.2454 24.8448 17.359 24.8448H25.7572C26.8709 24.8448 27.9389 25.3306 28.7264 26.1953C29.5139 27.0599 29.9563 28.2327 29.9563 29.4555C29.9563 30.0669 29.7351 30.6533 29.3413 31.0856C28.9476 31.5179 28.4136 31.7608 27.8567 31.7608H15.2595C14.7027 31.7608 14.1687 31.5179 13.7749 31.0856C13.3812 30.6533 13.16 30.0669 13.16 29.4555Z" fill="#FFF8F8" stroke="white" stroke-width="1.5" stroke-linejoin="round"/>
<path d="M21.9085 20.2345C23.6478 20.2345 25.0578 18.6863 25.0578 16.7765C25.0578 14.8667 23.6478 13.3185 21.9085 13.3185C20.1691 13.3185 18.7592 14.8667 18.7592 16.7765C18.7592 18.6863 20.1691 20.2345 21.9085 20.2345Z" fill="white" stroke="white" stroke-width="1.5"/>
</svg>
