<svg width="24" height="25" viewBox="0 0 24 25" fill="none" xmlns="http://www.w3.org/2000/svg">
<path fill-rule="evenodd" clip-rule="evenodd" d="M13.984 3.042C14.071 3.211 14.093 3.428 14.136 3.862C14.218 4.682 14.259 5.092 14.431 5.318C14.5382 5.45832 14.6806 5.56777 14.8437 5.63522C15.0069 5.70266 15.185 5.7257 15.36 5.702C15.64 5.665 15.96 5.404 16.598 4.882C16.935 4.605 17.104 4.467 17.285 4.409C17.5155 4.33534 17.7649 4.34777 17.987 4.444C18.162 4.52 18.317 4.674 18.624 4.982L19.518 5.876C19.826 6.184 19.98 6.338 20.056 6.513C20.1522 6.73506 20.1647 6.98447 20.091 7.215C20.033 7.396 19.895 7.565 19.619 7.902C19.096 8.541 18.835 8.86 18.797 9.141C18.7736 9.3159 18.7969 9.49387 18.8645 9.65686C18.9321 9.81985 19.0417 9.96204 19.182 10.069C19.407 10.241 19.818 10.282 20.639 10.364C21.072 10.407 21.289 10.429 21.459 10.516C21.6735 10.6272 21.8404 10.8123 21.929 11.037C22 11.214 22 11.432 22 11.868V13.132C22 13.568 22 13.786 21.93 13.962C21.8411 14.1874 21.6734 14.3729 21.458 14.484C21.289 14.571 21.072 14.593 20.638 14.636C19.818 14.718 19.408 14.759 19.182 14.931C19.0417 15.0382 18.9322 15.1806 18.8648 15.3437C18.7973 15.5069 18.7743 15.685 18.798 15.86C18.836 16.14 19.097 16.46 19.619 17.098C19.895 17.435 20.033 17.603 20.091 17.785C20.1647 18.0155 20.1522 18.2649 20.056 18.487C19.98 18.662 19.826 18.816 19.518 19.124L18.624 20.017C18.316 20.326 18.162 20.48 17.987 20.555C17.7649 20.6512 17.5155 20.6637 17.285 20.59C17.104 20.532 16.935 20.394 16.598 20.118C15.959 19.596 15.64 19.335 15.36 19.298C15.185 19.2743 15.0069 19.2973 14.8437 19.3648C14.6806 19.4322 14.5382 19.5417 14.431 19.682C14.259 19.907 14.218 20.317 14.136 21.138C14.093 21.572 14.071 21.789 13.984 21.958C13.8732 22.1732 13.6881 22.3409 13.463 22.43C13.286 22.5 13.068 22.5 12.632 22.5H11.368C10.932 22.5 10.714 22.5 10.538 22.43C10.3126 22.3411 10.1271 22.1734 10.016 21.958C9.929 21.789 9.907 21.572 9.864 21.138C9.782 20.318 9.741 19.908 9.569 19.682C9.46192 19.5418 9.31968 19.4325 9.1567 19.3651C8.99372 19.2976 8.81581 19.2745 8.641 19.298C8.36 19.335 8.041 19.596 7.402 20.118C7.065 20.395 6.896 20.533 6.715 20.591C6.48447 20.6647 6.23506 20.6522 6.013 20.556C5.838 20.48 5.683 20.326 5.376 20.018L4.482 19.124C4.174 18.816 4.02 18.662 3.944 18.487C3.84777 18.2649 3.83534 18.0155 3.909 17.785C3.967 17.604 4.105 17.435 4.381 17.098C4.904 16.459 5.165 16.14 5.202 15.859C5.22552 15.6842 5.20239 15.5063 5.13495 15.3433C5.06751 15.1803 4.95816 15.0381 4.818 14.931C4.593 14.759 4.182 14.718 3.361 14.636C2.928 14.593 2.711 14.571 2.541 14.484C2.32655 14.3728 2.1596 14.1877 2.071 13.963C2 13.786 2 13.568 2 13.132V11.868C2 11.432 2 11.214 2.07 11.038C2.15889 10.8126 2.32661 10.6271 2.542 10.516C2.711 10.429 2.928 10.407 3.362 10.364C4.182 10.282 4.593 10.241 4.818 10.069C4.95834 9.96204 5.06788 9.81985 5.1355 9.65686C5.20312 9.49387 5.22641 9.3159 5.203 9.141C5.165 8.86 4.903 8.541 4.381 7.901C4.105 7.564 3.967 7.396 3.909 7.214C3.83534 6.98347 3.84777 6.73406 3.944 6.512C4.02 6.338 4.174 6.183 4.482 5.875L5.376 4.982C5.684 4.674 5.838 4.519 6.013 4.444C6.23506 4.34777 6.48447 4.33534 6.715 4.409C6.896 4.467 7.065 4.605 7.402 4.881C8.041 5.403 8.36 5.664 8.64 5.702C8.81521 5.72578 8.9936 5.70267 9.15697 5.63504C9.32034 5.56741 9.46286 5.45766 9.57 5.317C9.74 5.092 9.782 4.682 9.864 3.861C9.907 3.428 9.929 3.211 10.016 3.041C10.127 2.82617 10.3121 2.65884 10.537 2.57C10.714 2.5 10.932 2.5 11.368 2.5H12.632C13.068 2.5 13.286 2.5 13.462 2.57C13.6874 2.65889 13.8729 2.82661 13.984 3.042ZM12 16.5C13.0609 16.5 14.0783 16.0786 14.8284 15.3284C15.5786 14.5783 16 13.5609 16 12.5C16 11.4391 15.5786 10.4217 14.8284 9.67157C14.0783 8.92143 13.0609 8.5 12 8.5C10.9391 8.5 9.92172 8.92143 9.17157 9.67157C8.42143 10.4217 8 11.4391 8 12.5C8 13.5609 8.42143 14.5783 9.17157 15.3284C9.92172 16.0786 10.9391 16.5 12 16.5Z" fill="#F8F8F8"/>
</svg>
