<svg width="34" height="34" viewBox="0 0 34 34" fill="none" xmlns="http://www.w3.org/2000/svg">
<path d="M23.1767 19.8333C23.29 18.8983 23.375 17.9633 23.375 17C23.375 16.0367 23.29 15.1017 23.1767 14.1667H27.965C28.1917 15.0733 28.3333 16.0225 28.3333 17C28.3333 17.9775 28.1917 18.9267 27.965 19.8333M20.6692 27.71C21.5192 26.1375 22.1708 24.4375 22.6242 22.6667H26.8033C25.4308 25.0301 23.2533 26.8203 20.6692 27.71ZM20.315 19.8333H13.685C13.5433 18.8983 13.4583 17.9633 13.4583 17C13.4583 16.0367 13.5433 15.0875 13.685 14.1667H20.315C20.4425 15.0875 20.5417 16.0367 20.5417 17C20.5417 17.9633 20.4425 18.8983 20.315 19.8333ZM17 28.2767C15.8242 26.5767 14.875 24.6925 14.2942 22.6667H19.7058C19.125 24.6925 18.1758 26.5767 17 28.2767ZM11.3333 11.3333H7.19668C8.55475 8.96331 10.7308 7.1701 13.3167 6.29001C12.4667 7.86251 11.8292 9.56251 11.3333 11.3333ZM7.19668 22.6667H11.3333C11.8292 24.4375 12.4667 26.1375 13.3167 27.71C10.7359 26.8208 8.56275 25.0299 7.19668 22.6667ZM6.03501 19.8333C5.80834 18.9267 5.66668 17.9775 5.66668 17C5.66668 16.0225 5.80834 15.0733 6.03501 14.1667H10.8233C10.71 15.1017 10.625 16.0367 10.625 17C10.625 17.9633 10.71 18.8983 10.8233 19.8333M17 5.70918C18.1758 7.40918 19.125 9.30751 19.7058 11.3333H14.2942C14.875 9.30751 15.8242 7.40918 17 5.70918ZM26.8033 11.3333H22.6242C22.1801 9.57896 21.5236 7.88533 20.6692 6.29001C23.2758 7.18251 25.4433 8.98168 26.8033 11.3333ZM17 2.83334C9.16584 2.83334 2.83334 9.20834 2.83334 17C2.83334 20.7572 4.3259 24.3606 6.98266 27.0174C8.29816 28.3329 9.85988 29.3764 11.5787 30.0883C13.2974 30.8002 15.1396 31.1667 17 31.1667C20.7572 31.1667 24.3606 29.6741 27.0174 27.0174C29.6741 24.3606 31.1667 20.7572 31.1667 17C31.1667 15.1396 30.8002 13.2974 30.0883 11.5787C29.3764 9.85988 28.3329 8.29816 27.0174 6.98266C25.7019 5.66717 24.1401 4.62366 22.4214 3.91172C20.7026 3.19978 18.8604 2.83334 17 2.83334Z" fill="black"/>
</svg>
