<svg width="42" height="42" viewBox="0 0 42 42" fill="none" xmlns="http://www.w3.org/2000/svg">
<g clip-path="url(#clip0_6_23)">
<path d="M37.5077 8.50675L27.0077 35.6317C26.9039 35.9004 26.7353 36.1393 26.517 36.3272C26.2987 36.515 26.0373 36.6461 25.7562 36.7088C25.4751 36.7715 25.1828 36.7638 24.9054 36.6864C24.6279 36.609 24.3739 36.4644 24.1657 36.2652L18.2472 30.604L14.6177 34.2317C14.4953 34.3538 14.3394 34.4369 14.1697 34.4704C14.0001 34.504 13.8243 34.4865 13.6646 34.4202C13.5049 34.3539 13.3684 34.2418 13.2723 34.098C13.1763 33.9542 13.125 33.7852 13.125 33.6123V25.704L4.04072 17.0152C3.81533 16.7996 3.65167 16.5276 3.56669 16.2275C3.4817 15.9274 3.47849 15.61 3.55737 15.3082C3.63625 15.0064 3.79437 14.7312 4.01535 14.511C4.23633 14.2909 4.51214 14.1338 4.81422 14.056L35.4392 6.181C35.7506 6.10124 36.0779 6.10877 36.3852 6.20275C36.6926 6.29674 36.9681 6.47355 37.1816 6.71381C37.3951 6.95406 37.5383 7.24846 37.5955 7.56474C37.6528 7.88101 37.6218 8.20693 37.506 8.50675H37.5077ZM33.25 10.5017L14.056 23.016L17.0922 25.921L33.25 10.5017Z" fill="#F8F8F8"/>
</g>
<defs>
<clipPath id="clip0_6_23">
<rect width="42" height="42" fill="white"/>
</clipPath>
</defs>
</svg>
