<svg width="45" height="56" viewBox="0 0 45 56" fill="none" xmlns="http://www.w3.org/2000/svg">
<path d="M41.7412 24.4253C35.385 17.766 23.8425 5.35967 23.7281 5.23367L22.5 3.92L21.2775 5.23367C21.1612 5.35733 9.61312 17.759 3.165 24.479C2.76385 24.9208 2.44173 25.4625 2.21951 26.069C1.99728 26.6755 1.87992 27.3334 1.875 28C1.875 29.2377 2.27009 30.4247 2.97335 31.2998C3.67661 32.175 4.63044 32.6667 5.625 32.6667H7.5V46.6667C7.5 47.9043 7.89509 49.0913 8.59835 49.9665C9.30161 50.8417 10.2554 51.3333 11.25 51.3333H33.75C34.7446 51.3333 35.6984 50.8417 36.4016 49.9665C37.1049 49.0913 37.5 47.9043 37.5 46.6667V32.6667H39.375C40.3696 32.6667 41.3234 32.175 42.0266 31.2998C42.7299 30.4247 43.125 29.2377 43.125 28C43.125 26.6047 42.6094 25.291 41.7412 24.4253ZM26.25 46.6667H18.75V35H26.25V46.6667ZM33.75 28L33.7538 46.6667H28.125V32.6667H16.875V46.6667H11.25V28H5.62313C10.8075 22.6053 19.3388 13.4703 22.5 10.08C25.6612 13.4703 34.1887 22.603 39.375 28.0023L33.75 28Z" fill="white"/>
</svg>
