<svg width="25" height="30" viewBox="0 0 25 30" fill="none" xmlns="http://www.w3.org/2000/svg">
<path d="M24.2574 18.7428L21.7031 15.9693V12.2951C21.7001 9.75598 20.8303 7.30825 19.2616 5.42519C17.6929 3.54213 15.537 2.35751 13.2106 2.10041V0H11.3233V2.10041C8.99694 2.35751 6.84096 3.54213 5.27231 5.42519C3.70366 7.30825 2.83376 9.75598 2.83084 12.2951V15.9693L0.276478 18.7428C0.0995044 18.9349 5.34437e-05 19.1955 0 19.4672V22.541C0 22.8127 0.0994159 23.0733 0.276377 23.2655C0.453339 23.4576 0.69335 23.5656 0.943612 23.5656H7.54889V24.5902C7.54889 25.9489 8.04597 27.2519 8.93078 28.2126C9.81559 29.1734 11.0156 29.7131 12.267 29.7131C13.5183 29.7131 14.7183 29.1734 15.6031 28.2126C16.4879 27.2519 16.985 25.9489 16.985 24.5902V23.5656H23.5903C23.8406 23.5656 24.0806 23.4576 24.2575 23.2655C24.4345 23.0733 24.5339 22.8127 24.5339 22.541V19.4672C24.5339 19.1955 24.4344 18.9349 24.2574 18.7428ZM15.0978 24.5902C15.0978 25.4054 14.7995 26.1872 14.2687 26.7637C13.7378 27.3401 13.0177 27.6639 12.267 27.6639C11.5162 27.6639 10.7961 27.3401 10.2652 26.7637C9.73436 26.1872 9.43612 25.4054 9.43612 24.5902V23.5656H15.0978V24.5902Z" fill="#0F0404"/>
</svg>
